<svg version="1.1" id="Layer_1" xmlns="http://www.w3.org/2000/svg" xmlns:xlink="http://www.w3.org/1999/xlink" x="0px"
	y="0px" width="100%" viewBox="0 0 1500 1500" enable-background="new 0 0 1500 1500" xml:space="preserve">
	<path fill="#B6939A" opacity="1.000000" stroke="none" d="
M815.000000,1501.000000
	C543.333374,1501.000000 272.166779,1501.000000 1.000109,1501.000000
	C1.000073,1001.000122 1.000073,501.000275 1.000036,1.000310
	C500.999756,1.000207 1000.999512,1.000207 1500.999512,1.000103
	C1500.999634,500.999664 1500.999634,1000.999329 1500.999756,1500.999512
	C1272.500000,1501.000000 1044.000000,1501.000000 815.000000,1501.000000
M272.314117,750.500000
	C272.314056,803.307861 272.351501,856.115845 272.240967,908.923462
	C272.232361,913.036255 273.014801,914.802795 277.681946,914.794800
	C355.977325,914.660156 434.273071,914.663391 512.568481,914.789001
	C517.065369,914.796265 518.101624,913.346680 518.092773,909.059570
	C517.963257,846.256775 518.202332,783.452393 517.812561,720.651733
	C517.744019,709.607605 516.484192,698.233948 513.606262,687.599243
	C495.977325,622.455872 429.027222,583.712280 363.918732,601.685974
	C313.386597,615.635742 282.879883,649.430786 274.030579,701.159729
	C271.336182,716.910034 272.771149,733.366821 272.314117,750.500000
M717.869690,813.495239
	C724.535278,797.987244 731.200867,782.479248 737.866455,766.971252
	C738.928955,768.646545 739.084290,770.070435 739.146545,771.498352
	C739.872375,788.144836 740.579163,804.792297 741.301758,821.438965
	C741.650391,829.469788 741.347778,829.837830 733.237915,831.364929
	C732.783752,831.450500 732.419189,832.012207 731.718506,832.598755
	C742.241577,832.598755 752.221191,832.598755 763.291443,832.598755
	C752.314941,828.589966 752.380493,828.587097 751.864014,816.824585
	C751.162292,800.844421 750.432922,784.864502 749.556396,768.893188
	C748.810547,755.303101 748.710938,755.308594 760.875000,751.012024
	C756.837097,750.707092 752.725098,751.163452 748.759155,750.596924
	C743.221619,749.805908 740.736145,752.243713 738.705811,757.062500
	C731.270935,774.708679 723.466125,792.199097 715.788513,809.742859
	C714.937134,811.688477 714.007874,813.600037 712.719543,816.380127
	C711.471252,814.029419 710.606812,812.497070 709.829041,810.921997
	C700.833313,792.703674 691.901672,774.453247 682.795105,756.290527
	C681.741272,754.188660 679.898682,751.179993 678.140808,750.972595
	C672.395935,750.294861 666.521057,750.718445 660.696228,750.718445
	C671.611938,755.774170 671.588379,755.773682 671.331055,767.867249
	C671.008423,783.027588 670.763123,798.189697 670.417603,813.349487
	C670.232422,821.474548 671.042114,830.219299 659.976196,832.592041
	C668.073120,832.592041 676.170044,832.592041 684.266968,832.592041
	C673.587402,830.728821 673.739319,822.828918 673.915588,814.870667
	C674.236633,800.376953 674.505127,785.882080 674.832520,771.388489
	C674.858948,770.221802 675.170166,769.061462 675.569519,766.463928
	C686.815918,789.455383 697.404114,811.101257 707.992310,832.747131
	C708.538269,832.625183 709.084229,832.503235 709.630127,832.381287
	C712.269592,826.315918 714.909058,820.250610 717.869690,813.495239
M840.169312,701.972229
	C838.479126,702.151978 836.789001,702.331726 835.098816,702.511475
	C835.489868,703.601379 835.865662,703.924805 836.247803,703.932373
	C848.394958,704.173828 860.554932,704.835327 872.687744,704.505310
	C897.116638,703.840759 914.684998,686.764771 915.726135,663.332886
	C916.690674,641.625244 901.232483,624.393433 876.950195,621.924744
	C863.776428,620.585510 850.368652,621.538025 837.066406,621.501770
	C836.424133,621.500061 835.780701,621.932373 833.994934,622.571777
	C836.671936,622.995728 838.108398,623.240112 839.550049,623.448242
	C843.242371,623.981140 845.182922,626.052063 845.182678,629.831299
	C845.181274,651.809998 845.287231,673.790100 844.990845,695.764893
	C844.963257,697.804443 842.375671,699.809387 840.169312,701.972229
M1051.679932,752.846680
	C1034.583496,747.231384 1017.175903,752.615906 999.971252,750.826050
	C1011.838806,754.109558 1009.944031,754.927124 1010.038391,765.198669
	C1010.203491,783.169189 1010.088989,801.142395 1010.082275,819.114441
	C1010.078430,829.293762 1010.069214,829.289856 1000.492004,831.532349
	C1000.273926,831.583374 1000.142334,832.003845 999.848328,832.428223
	C1000.291809,832.619202 1000.673340,832.922607 1001.060791,832.930237
	C1013.199463,833.170898 1025.351685,833.843262 1037.474976,833.498901
	C1059.653442,832.868896 1076.667603,818.432617 1079.844971,798.293091
	C1083.141602,777.397095 1073.381470,761.284607 1051.679932,752.846680
M1043.622681,620.037964
	C1031.793335,620.778564 1021.054260,624.413757 1012.220154,632.527466
	C998.632324,645.007141 995.232239,665.200073 1003.568848,682.585144
	C1011.699890,699.541443 1028.708130,707.937561 1048.959839,704.992249
	C1071.751465,701.677551 1088.765503,681.385315 1087.311157,659.251648
	C1085.780396,635.955261 1068.572998,620.161438 1043.622681,620.037964
M912.266724,770.258301
	C930.520874,791.879944 948.775024,813.501587 967.029175,835.123230
	C967.505737,834.894165 967.982239,834.665039 968.458801,834.435974
	C968.458801,832.483582 968.458801,830.531189 968.458801,828.578796
	C968.458984,809.259399 968.439819,789.940063 968.468445,770.620667
	C968.480774,762.327576 967.588867,753.506775 978.752625,751.042236
	C970.928833,751.042236 963.104980,751.042236 955.281189,751.042236
	C963.175720,754.448608 964.931091,756.826782 964.985352,765.623779
	C965.076782,780.445862 965.028503,795.268860 965.013123,810.091431
	C965.011597,811.517334 964.827698,812.943115 964.677673,815.098816
	C963.425598,814.031311 962.626709,813.527893 962.054810,812.836609
	C945.812683,793.206482 929.608032,773.545471 913.338013,753.938538
	C912.234741,752.609009 910.718689,750.773926 909.308167,750.693604
	C903.073303,750.338745 896.806763,750.540161 890.551697,750.540161
	C891.300293,751.891174 892.152039,752.270203 893.027710,752.581909
	C900.471375,755.231384 901.538757,756.711304 901.540100,764.486023
	C901.542969,780.807556 901.558960,797.129089 901.533020,813.450623
	C901.519958,821.642151 902.262817,830.294739 891.119629,832.445923
	C899.076660,832.445923 907.033752,832.445923 914.990784,832.445923
	C906.954834,829.076782 905.104126,826.564453 905.056335,817.505981
	C904.967590,800.685242 905.017273,783.863831 905.045288,767.042725
	C905.047241,765.863831 905.343933,764.685486 905.630676,762.568909
	C908.144592,765.471497 909.980652,767.591492 912.266724,770.258301
M749.933960,643.507507
	C749.934509,640.508362 749.927795,637.509277 749.936890,634.510132
	C749.966125,624.929810 750.211670,624.641602 759.585388,622.876709
	C759.762634,622.843323 759.866272,622.418579 760.175842,621.875244
	C749.679932,621.875244 739.379211,621.875244 729.078430,621.875244
	C741.883423,625.431458 738.920349,626.226440 739.189819,636.980530
	C739.498596,649.302551 738.758606,661.668152 739.486084,673.954956
	C739.847656,680.061646 741.348816,686.662537 744.301025,691.939697
	C750.884033,703.706787 767.363708,708.605103 782.349609,704.478577
	C795.418579,700.879822 803.410645,690.544983 803.800781,675.944214
	C804.121155,663.956055 803.973083,651.953003 803.898621,639.957397
	C803.849243,632.001648 804.016541,624.305603 814.050903,621.955139
	C805.647644,621.955139 797.244385,621.955139 787.544250,621.955139
	C797.442444,625.663086 799.814941,627.780884 799.921631,634.437622
	C800.159180,649.260315 800.364441,664.105225 799.806946,678.911865
	C799.377563,690.315979 792.347046,698.394470 782.435242,700.707581
	C766.482056,704.430603 753.146790,696.211243 751.051208,679.900146
	C749.554077,668.246338 750.228516,656.313477 749.933960,643.507507
M854.774048,809.558594
	C844.914612,789.387024 835.055237,769.215454 824.585144,747.794495
	C823.146118,750.829285 822.409851,752.275818 821.763367,753.761292
	C813.197998,773.442749 804.732910,793.168579 796.047424,812.796814
	C792.437561,820.954651 789.982117,830.299316 779.227356,832.454834
	C789.205933,832.454834 799.184509,832.454834 809.163086,832.454834
	C808.591797,831.565186 807.982849,831.316467 807.351013,831.223450
	C797.104431,829.716492 794.622925,825.470703 798.601196,815.716797
	C801.554016,808.476929 804.612244,801.264893 808.050659,794.249878
	C808.834534,792.650452 811.312378,791.079956 813.124878,790.936035
	C818.585266,790.502380 824.109375,790.949280 829.593933,790.712280
	C832.778992,790.574585 834.346558,791.908203 835.619751,794.663696
	C839.597778,803.272949 843.838257,811.760559 847.922485,820.321289
	C851.841675,828.536133 851.232239,829.777039 842.658142,831.577820
	C842.484192,831.614319 842.406311,832.108215 842.239136,832.490479
	C852.139526,832.490479 861.983337,832.490479 871.827209,832.490479
	C865.980286,830.692749 863.171570,826.162292 860.645142,821.412354
	C858.692871,817.741760 856.929688,813.970581 854.774048,809.558594
M1130.203979,782.554993
	C1125.713867,792.940369 1121.356201,803.385803 1116.690430,813.691589
	C1113.135254,821.543945 1110.594849,830.462646 1100.233154,832.472168
	C1110.214111,832.472168 1120.195068,832.472168 1130.176025,832.472168
	C1129.608398,831.581299 1129.009888,831.321533 1128.386597,831.228210
	C1118.086792,829.686340 1115.616699,825.495850 1119.586792,815.750122
	C1122.536499,808.509338 1125.630005,801.315796 1129.017212,794.273193
	C1129.756592,792.735840 1131.953125,791.063660 1133.587646,790.944092
	C1139.218872,790.532349 1144.905151,790.944702 1150.556885,790.713196
	C1153.720215,790.583618 1155.323364,791.856018 1156.603394,794.630310
	C1160.646240,803.392700 1164.969360,812.025208 1169.105103,820.745483
	C1172.836060,828.612671 1172.178955,829.839966 1163.684326,831.550110
	C1163.503906,831.586426 1163.414307,832.073853 1163.207886,832.507141
	C1173.140991,832.507141 1182.989868,832.507141 1192.838623,832.507141
	C1184.995728,830.026367 1182.415894,823.200012 1179.368042,817.015442
	C1169.069702,796.119141 1158.967651,775.126099 1148.770386,754.179810
	C1147.930786,752.455017 1146.939819,750.803894 1145.339355,747.874023
	C1140.046875,760.035400 1135.294556,770.955933 1130.203979,782.554993
M595.174805,750.542908
	C592.110107,748.075684 592.085876,751.417725 591.513123,752.705811
	C586.307129,764.413330 581.290039,776.204651 576.135193,787.935181
	C571.115417,799.358521 566.125000,810.797913 560.865540,822.111206
	C558.629456,826.921082 555.316162,830.870789 549.360840,831.312073
	C548.924866,831.344360 548.534302,831.988953 547.932190,832.515503
	C558.473877,832.515503 568.561462,832.515503 578.649048,832.515503
	C578.125977,831.601379 577.558289,831.320679 576.962952,831.237366
	C566.226074,829.735413 563.777466,825.629272 567.894958,815.633240
	C570.809937,808.556641 574.037292,801.608276 576.922363,794.520081
	C578.013245,791.840027 579.511292,790.624451 582.491943,790.727234
	C587.980591,790.916504 593.485168,790.915771 598.973816,790.724792
	C601.913391,790.622437 603.482605,791.780151 604.697144,794.389282
	C608.840332,803.290283 613.228699,812.076782 617.441223,820.945984
	C620.993652,828.425232 620.257507,829.837219 612.234131,831.597107
	C612.045593,831.638428 611.945801,832.084045 611.666748,832.592163
	C621.538391,832.592163 631.266357,832.592163 640.994385,832.592163
	C633.807068,830.088440 631.022217,823.938843 628.116760,818.006470
	C617.210022,795.736816 606.386658,773.426331 595.174805,750.542908
M675.339966,697.618958
	C675.245667,675.129761 675.079346,652.640259 675.200378,630.152222
	C675.209534,628.442017 676.864990,625.882263 678.417664,625.178040
	C688.521179,620.595276 700.162720,626.497131 702.786621,637.227783
	C703.228149,639.033630 703.568787,640.864197 703.955994,642.683350
	C704.369568,642.636841 704.783142,642.590332 705.196777,642.543823
	C705.586914,634.531860 705.977051,626.519836 706.340393,619.058472
	C702.984253,619.885498 700.078552,621.188843 697.157104,621.225220
	C679.332703,621.447144 661.503906,621.474976 643.678589,621.322632
	C640.574341,621.296204 637.479980,620.105591 634.233337,619.421570
	C633.683716,626.808899 633.088623,634.806641 632.493530,642.804382
	C634.106689,641.601624 634.655884,640.147339 635.152466,638.675293
	C638.972717,627.350891 645.875732,623.022644 657.627563,624.287781
	C662.086670,624.767822 664.162109,626.829529 664.099854,631.371155
	C663.990234,639.368713 664.093018,647.369080 664.094604,655.368286
	C664.097107,667.867126 664.130188,680.366150 664.070679,692.864746
	C664.035400,700.277161 662.779724,701.550110 655.528015,702.207153
	C654.393982,702.309937 653.282166,702.658813 652.160095,702.893860
	C652.212036,703.129089 652.264038,703.364319 652.315979,703.599548
	C663.769470,703.599548 675.222961,703.599548 686.005981,703.599548
	C682.781860,701.993225 679.205505,700.211365 675.339966,697.618958
M593.427185,662.121887
	C588.405090,658.857056 583.164917,655.874695 578.438477,652.226746
	C575.351624,649.844177 572.349304,646.861572 570.487183,643.495972
	C567.581726,638.244690 567.836365,632.498779 571.463135,627.442566
	C574.877502,622.682617 579.937744,621.994873 585.332031,622.669128
	C593.871155,623.736450 597.391113,630.132690 600.435669,636.998657
	C601.163940,638.641113 601.788574,640.329407 602.460938,641.996643
	C603.019104,637.245667 602.856873,632.800354 603.071594,628.373352
	C603.236572,624.970825 601.832947,623.141418 598.662964,622.166504
	C589.456299,619.334961 580.318237,618.887451 571.357849,622.925903
	C562.025879,627.131958 557.093140,636.386414 560.301147,645.856995
	C561.853821,650.440857 565.363037,654.851318 569.073975,658.096863
	C574.291687,662.660095 580.580872,665.981201 586.299683,669.993408
	C591.336609,673.527283 595.149780,678.045410 596.554138,684.246399
	C599.439575,696.987061 590.470703,705.632446 577.789978,702.430420
	C571.652222,700.880615 567.726685,696.739380 564.757080,691.561829
	C562.492126,687.612854 560.615540,683.441101 558.566162,679.368469
	C557.869324,684.937500 558.383118,690.322876 558.526550,695.718079
	C558.618652,699.183716 560.060059,701.185120 563.256897,702.456055
	C572.412903,706.095825 581.711304,706.832458 591.087646,703.774536
	C602.328308,700.108459 608.724915,689.825806 606.713806,679.078796
	C605.284729,671.442017 600.116821,666.613403 593.427185,662.121887
M951.983154,682.488098
	C951.975159,686.482666 951.975159,690.477234 951.957214,694.471741
	C951.936218,699.145813 950.114197,702.140442 944.935669,702.189758
	C943.837463,702.200134 942.743835,702.691223 941.648132,702.960876
	C941.709473,703.191162 941.770813,703.421448 941.832153,703.651733
	C952.157288,703.651733 962.482483,703.651733 973.585815,703.651733
	C972.563660,702.888977 972.246521,702.466370 971.862671,702.393005
	C962.985474,700.697083 962.854614,700.584900 962.843628,691.563232
	C962.821411,673.421143 962.833252,655.278992 962.834656,637.136902
	C962.835510,625.786743 962.838501,625.786743 973.782959,621.936401
	C962.452881,621.936401 952.028931,621.936401 941.604980,621.936401
	C951.981201,625.209045 951.982239,625.209045 951.982971,636.553040
	C951.983948,651.532776 951.983154,666.512451 951.983154,682.488098
M609.847717,889.457153
	C606.004883,897.756714 607.930542,905.574707 614.923767,909.367737
	C619.082031,911.623108 623.351562,913.685120 627.641663,915.682495
	C632.064331,917.741638 636.159668,916.379822 637.522278,912.195923
	C633.886536,913.619629 630.285828,915.567139 627.988586,912.650452
	C631.199768,908.180298 635.083557,904.545044 636.708435,900.086487
	C639.003540,893.789124 635.274536,887.119873 629.459717,884.251831
	C622.923950,881.028198 615.658752,882.760376 609.847717,889.457153
M932.869568,896.505371
	C932.551636,892.026367 933.542480,887.358948 932.225891,883.023743
	C931.350952,883.055420 930.476013,883.087097 929.601074,883.118713
	C929.601074,889.450684 929.601074,895.782593 929.601074,902.114502
	C928.932861,902.282776 928.264648,902.451050 927.596497,902.619324
	C922.115356,895.869385 916.634155,889.119446 910.641052,881.739014
	C908.139221,889.301758 908.787231,908.500366 912.220276,912.003113
	C912.220276,904.198486 912.220276,897.535461 912.220276,890.872437
	C912.756958,890.758301 913.293640,890.644104 913.830261,890.529968
	C919.494568,897.570374 925.158875,904.610718 930.823181,911.651123
	C931.505249,911.325317 932.187256,910.999573 932.869324,910.673828
	C932.869324,906.280518 932.869324,901.887268 932.869568,896.505371
M600.904724,906.590576
	C599.904541,905.094360 598.904419,903.598206 597.799316,901.945068
	C598.633057,901.196899 599.196533,900.621643 599.828613,900.135559
	C603.300354,897.465820 604.106873,893.914612 603.107056,889.868164
	C602.095154,885.772827 598.999939,883.682922 595.159241,883.303284
	C590.793152,882.871704 586.351624,883.203552 582.199951,883.203552
	C582.199951,892.822998 582.199951,901.845337 582.199951,910.867737
	C582.706055,910.921692 583.212158,910.975647 583.718262,911.029602
	C584.047180,909.927307 584.541931,908.844910 584.676453,907.719360
	C585.264526,902.797974 590.427612,900.054382 594.315430,902.938477
	C596.114014,904.272705 597.131348,906.616699 598.692505,908.330200
	C599.688171,909.422852 601.031494,910.198853 602.218872,911.116821
	C602.484070,910.791504 602.749268,910.466187 603.014465,910.140869
	C602.447998,909.156067 601.881470,908.171326 600.904724,906.590576
M991.402161,907.909424
	C992.019287,908.879211 992.636414,909.848938 993.253418,910.818665
	C993.734497,909.879333 994.500732,908.982849 994.649536,907.993469
	C995.483459,902.450989 997.355225,900.837952 1002.670837,902.422119
	C1004.591431,902.994507 1006.022034,905.306152 1007.602173,906.897583
	C1009.038513,908.344116 1010.374451,909.890381 1011.754700,911.392700
	C1012.228271,910.995789 1012.701904,910.598877 1013.175476,910.201965
	C1011.381592,907.402222 1009.587708,904.602417 1007.717712,901.683838
	C1012.886780,898.443298 1014.786011,894.218140 1012.813293,889.005066
	C1010.854431,883.828491 1006.189758,882.963135 1001.287659,882.947754
	C999.623840,882.942566 997.941101,883.105286 996.300110,882.911438
	C992.710266,882.487671 991.167053,883.714661 991.312561,887.557861
	C991.557922,894.037476 991.382202,900.533081 991.402161,907.909424
M1059.457520,898.172729
	C1059.138794,889.689453 1054.971924,884.233582 1047.868774,882.999329
	C1040.648560,881.744812 1033.821655,884.998596 1031.250000,891.126648
	C1029.006836,896.471741 1029.556274,901.655151 1033.298828,906.134583
	C1037.339600,910.970886 1042.844482,912.172974 1048.710205,910.774292
	C1054.778564,909.327332 1058.391113,905.221802 1059.457520,898.172729
M810.435913,909.974548
	C811.435120,910.312500 812.434326,910.650513 814.603394,911.384277
	C811.910522,907.433472 810.053345,904.708740 808.095276,901.835938
	C808.783875,901.256653 809.227661,900.801819 809.746033,900.460144
	C813.596069,897.922607 814.694702,894.277344 813.621704,890.019409
	C812.556396,885.792053 809.330322,883.622742 805.254639,883.257507
	C801.033508,882.879272 796.752075,883.173340 792.741699,883.173340
	C792.741699,892.787354 792.741699,901.808838 792.741699,910.830383
	C793.276733,910.885254 793.811768,910.940186 794.346741,910.995117
	C794.736023,908.260193 795.125305,905.525330 795.488953,902.970703
	C802.883545,899.827576 806.849304,903.775574 810.435913,909.974548
M1084.508179,910.039185
	C1085.448608,910.335388 1086.389038,910.631592 1088.293701,911.231384
	C1085.835083,907.391052 1083.996826,904.519653 1082.101318,901.559021
	C1087.093872,898.673340 1089.147827,894.751587 1087.456665,889.577637
	C1085.724243,884.277100 1081.257324,883.054443 1076.284302,882.994019
	C1073.016724,882.954285 1069.748291,882.986450 1066.758789,882.986450
	C1066.758789,892.786133 1066.758789,901.806213 1066.758789,910.826294
	C1067.295776,910.867981 1067.832642,910.909729 1068.369629,910.951416
	C1068.753418,908.221924 1069.137207,905.492432 1069.486084,903.010742
	C1076.997681,899.726501 1080.856445,903.909058 1084.508179,910.039185
M970.771729,908.179199
	C965.127625,906.094666 969.093933,901.892578 968.089355,898.356262
	C973.104370,898.133606 977.563171,897.935730 982.021973,897.737793
	C982.068359,897.285645 982.114746,896.833557 982.161133,896.381409
	C981.234009,896.037659 980.321350,895.453003 979.377075,895.396667
	C976.885925,895.247986 974.374939,895.213318 971.883362,895.347168
	C968.779785,895.513977 968.028442,894.029053 967.854004,891.145142
	C967.606262,887.048096 968.940552,885.314819 973.171692,885.718018
	C975.976074,885.985229 978.838318,885.832642 981.657898,885.632324
	C982.462402,885.575134 983.208313,884.694397 983.981079,884.191345
	C983.850220,883.882690 983.719360,883.574097 983.588501,883.265503
	C977.506714,883.265503 971.424927,883.265503 965.086121,883.265503
	C965.086121,892.501221 965.086121,901.560120 965.086121,910.460999
	C971.764587,910.460999 978.056091,910.460999 984.347656,910.460999
	C984.372681,909.841309 984.397644,909.221619 984.422668,908.601990
	C980.187134,908.473083 975.951538,908.344116 970.771729,908.179199
M721.460876,885.770691
	C724.173523,885.612183 726.886230,885.453674 729.598877,885.295166
	C729.564819,884.696960 729.530762,884.098694 729.496704,883.500427
	C723.376953,883.500427 717.257202,883.500427 710.822937,883.500427
	C710.822937,892.553406 710.822937,901.586609 710.822937,910.453857
	C717.558533,910.453857 723.829590,910.453857 730.100708,910.453857
	C730.153870,910.006287 730.207092,909.558716 730.260254,909.111145
	C729.166321,908.819641 728.080872,908.321411 726.976868,908.276245
	C723.984436,908.154053 720.971313,908.045593 717.990051,908.260376
	C713.659485,908.572510 713.760864,905.850220 713.676453,902.808350
	C713.587646,899.605774 714.311768,897.728577 718.062195,898.021545
	C721.284973,898.273254 724.543030,898.073730 727.785461,898.073730
	C727.776733,897.158752 727.768066,896.243774 727.759338,895.328796
	C724.764465,895.328796 721.752991,895.130066 718.778687,895.377502
	C714.773193,895.710632 713.688293,893.993164 713.632324,890.162659
	C713.548889,884.456970 717.478394,886.034790 721.460876,885.770691
M840.696472,901.666199
	C839.105774,898.191772 837.699402,894.616333 835.868286,891.273621
	C834.289429,888.391479 832.226868,885.774414 830.378174,883.040161
	C828.673950,885.741028 826.703430,888.312988 825.319946,891.169189
	C822.254089,897.498474 819.482910,903.970398 816.591614,910.384155
	C816.987244,910.774231 817.382874,911.164307 817.778503,911.554382
	C821.416748,907.887085 823.497620,903.187256 830.382324,903.191711
	C837.267822,903.196228 839.678711,907.749084 843.437073,911.522827
	C843.778564,911.136536 844.120056,910.750244 844.461548,910.363953
	C843.307068,907.693787 842.152588,905.023621 840.696472,901.666199
M575.142151,907.024658
	C571.886658,899.908325 568.680359,892.768738 565.322632,885.700928
	C564.820007,884.642822 563.660889,883.309204 562.708130,883.226685
	C561.851501,883.152588 560.469849,884.436829 559.992126,885.441528
	C556.417786,892.959595 552.987488,900.546814 549.587097,908.145935
	C549.253479,908.891479 549.425293,909.863281 549.362488,910.730103
	C549.661987,911.047913 549.961487,911.365784 550.260986,911.683655
	C553.071777,906.353760 556.497498,903.721069 562.935242,903.239624
	C569.972900,902.713379 571.526123,908.471313 575.545044,911.344849
	C575.790161,911.022827 576.035278,910.700867 576.280457,910.378845
	C575.994202,909.477173 575.707947,908.575500 575.142151,907.024658
M1120.075195,888.379822
	C1119.012207,893.250854 1121.413574,895.955017 1125.768921,897.367737
	C1127.819946,898.033020 1130.151001,898.175659 1131.926392,899.258118
	C1133.828979,900.418152 1135.227539,902.404724 1136.846191,904.030457
	C1134.915894,905.505127 1133.137817,907.862488 1131.016357,908.228271
	C1128.440552,908.672302 1125.573120,907.446716 1122.835938,906.921448
	C1121.859131,906.734009 1120.894653,906.482483 1119.924561,906.260132
	C1122.302002,911.103027 1126.638794,911.757202 1130.683594,910.997498
	C1133.759888,910.419739 1137.383423,908.641479 1139.150879,906.220276
	C1141.526733,902.965515 1139.745483,899.427124 1136.035522,897.666016
	C1133.660156,896.538452 1131.025513,895.948364 1128.493286,895.161804
	C1125.749023,894.309387 1122.640747,893.585938 1123.119141,889.822754
	C1123.613770,885.929932 1126.942261,885.510132 1129.964722,885.567871
	C1132.647461,885.619080 1135.317627,886.341431 1138.326904,886.820618
	C1134.611084,880.802307 1124.816528,881.553040 1120.075195,888.379822
M650.993713,910.644714
	C659.965637,912.101929 665.174194,909.868225 666.229797,902.966187
	C667.150391,896.946960 666.690002,890.711304 666.720703,884.570679
	C666.723267,884.059448 665.817566,883.543640 664.497131,882.141357
	C664.237488,884.734375 663.984680,886.254578 663.952087,887.779480
	C663.866882,891.773376 664.075256,895.782776 663.804199,899.761292
	C663.393799,905.785889 660.461914,908.493286 655.008057,908.337708
	C649.853516,908.190674 647.203369,905.391968 646.991455,899.554504
	C646.834534,895.231079 647.000916,890.896484 646.871399,886.571411
	C646.835022,885.356506 646.261780,884.157654 645.934753,882.951477
	C645.259216,883.048523 644.583740,883.145508 643.908264,883.242554
	C644.328552,891.195251 641.826477,899.311340 646.081787,907.019165
	C646.879639,908.464355 648.863098,909.255005 650.993713,910.644714
M1094.977905,895.511108
	C1094.977905,900.579773 1094.977905,905.648438 1094.977905,910.390869
	C1102.169434,910.390869 1108.417114,910.390869 1114.664673,910.390869
	C1114.663574,909.679382 1114.662354,908.967896 1114.661133,908.256409
	C1111.386841,908.256409 1108.112427,908.260925 1104.838135,908.255432
	C1097.727905,908.243530 1097.708374,908.240417 1098.089111,901.048462
	C1098.138184,900.122620 1098.513550,899.213989 1098.925049,897.532227
	C1103.425049,897.532227 1107.840698,897.532227 1112.256348,897.532227
	C1112.250000,896.804504 1112.243652,896.076843 1112.237183,895.349121
	C1108.764526,895.349121 1105.289307,895.268738 1101.819824,895.374817
	C1099.090088,895.458191 1098.178589,894.363098 1097.954834,891.585693
	C1097.591064,887.068604 1099.050293,885.147827 1103.725098,885.688416
	C1106.347046,885.991638 1109.040771,885.832275 1111.688477,885.663757
	C1112.555786,885.608643 1113.379517,884.868774 1114.223267,884.442078
	C1114.121338,884.094727 1114.019409,883.747375 1113.917480,883.400024
	C1107.795044,883.400024 1101.672607,883.400024 1094.977905,883.400024
	C1094.977905,887.290771 1094.977905,890.906189 1094.977905,895.511108
M871.428040,911.043518
	C874.176270,911.043518 876.924500,911.043518 879.672729,911.043518
	C879.665955,910.114502 879.659241,909.185547 879.652466,908.256531
	C876.677673,908.256531 873.702942,908.257874 870.728149,908.256226
	C862.722656,908.251770 862.715332,908.250916 863.108276,900.441162
	C863.139771,899.816040 863.368042,899.200684 863.555786,898.350037
	C868.217102,898.118347 872.750549,897.892944 877.921021,897.635986
	C876.966431,896.333862 876.789246,895.859314 876.583801,895.846680
	C873.293091,895.645447 870.000000,895.419983 866.705078,895.375488
	C864.339417,895.343567 863.130615,894.651611 862.995056,891.964783
	C862.702271,886.160645 862.907349,885.784668 868.835144,885.745544
	C871.493225,885.728027 874.158813,885.832275 876.805359,885.651733
	C877.644287,885.594543 878.432617,884.794556 879.244080,884.334473
	C879.126648,884.012207 879.009155,883.689880 878.891724,883.367554
	C872.747620,883.367554 866.603516,883.367554 860.313904,883.367554
	C860.313904,892.660339 860.313904,901.541931 860.313904,911.043518
	C863.908447,911.043518 867.185669,911.043518 871.428040,911.043518
M777.678650,906.234741
	C769.778564,911.112854 763.422424,907.828186 763.065796,898.635376
	C762.949951,895.648499 763.090698,892.652344 763.008728,889.663269
	C762.949219,887.495972 762.716187,885.333435 762.560486,883.168762
	C760.973999,883.700378 760.121887,884.386658 760.116211,885.079712
	C760.070618,890.724243 759.762695,896.414917 760.358826,902.003601
	C761.036194,908.353882 765.585205,911.445679 772.435547,911.148193
	C778.483765,910.885559 782.479370,907.359314 782.880188,901.265015
	C783.228394,895.970093 783.030334,890.635803 782.954285,885.320557
	C782.943420,884.560059 782.260132,883.809143 781.888062,883.053833
	C780.482483,885.099182 780.293274,887.069641 780.075256,889.036804
	C779.463135,894.559448 778.839111,900.080750 777.678650,906.234741
M745.686340,909.708984
	C745.755066,903.731812 746.050293,897.745728 745.816101,891.780457
	C745.648743,887.516602 746.560120,885.066345 751.478943,885.690735
	C752.747742,885.851807 754.137024,885.063660 755.470947,884.711548
	C755.379456,884.295959 755.287964,883.880432 755.196411,883.464844
	C747.846252,883.464844 740.496094,883.464844 733.145935,883.464844
	C733.074219,883.940674 733.002563,884.416443 732.930847,884.892273
	C734.296631,885.184937 735.697998,885.836060 737.021667,885.704590
	C741.427795,885.266968 742.947205,887.092407 742.707397,891.432678
	C742.414490,896.733032 742.576599,902.063782 742.692993,907.378052
	C742.726501,908.906494 741.985046,911.546509 745.686340,909.708984
M950.451294,882.942871
	C946.151917,882.942871 941.852539,882.942871 937.553223,882.942871
	C937.536987,883.650391 937.520752,884.357910 937.504578,885.065430
	C939.139832,885.301819 940.803528,885.854980 942.404785,885.711731
	C946.273865,885.365356 947.277466,887.130615 947.132385,890.693176
	C946.909241,896.172302 947.003540,901.669250 947.136353,907.154419
	C947.168274,908.472900 947.881042,909.774963 948.280762,911.084534
	C948.808105,911.024841 949.335449,910.965210 949.862793,910.905579
	C950.010010,909.366089 950.267029,907.827820 950.284180,906.286865
	C950.339844,901.298096 950.485352,896.299988 950.252380,891.321533
	C950.067566,887.374573 951.238586,885.352295 955.547913,885.695007
	C956.972900,885.808411 958.469055,885.026733 959.932678,884.654297
	C959.836914,884.083862 959.741211,883.513367 959.645447,882.942932
	C956.903564,882.942932 954.161743,882.942932 950.451294,882.942871
M684.517273,883.132751
	C684.356018,885.612488 684.390747,885.974060 687.395935,885.685608
	C692.185486,885.225952 693.426941,887.279907 693.150391,891.700867
	C692.828552,896.844177 692.998657,902.025574 693.138489,907.185486
	C693.174011,908.497620 693.903564,909.790833 694.314209,911.092773
	C694.835266,911.020996 695.356262,910.949219 695.877319,910.877441
	C696.019775,909.331787 696.269287,907.787231 696.285156,906.240295
	C696.339905,900.910583 696.411377,895.577637 696.279968,890.250793
	C696.202209,887.099487 697.358215,885.643250 700.628235,885.730652
	C702.373474,885.777405 704.133667,885.264587 705.887146,885.004333
	C705.848511,884.335388 705.809875,883.666382 705.771240,882.997437
	C698.954834,882.997437 692.138428,882.997437 684.517273,883.132751
M1023.722412,900.451233
	C1023.135803,894.690552 1024.967041,888.653992 1022.241821,882.268066
	C1019.379517,887.686096 1019.827576,908.354919 1023.721802,912.145813
	C1023.721802,907.709412 1023.721802,904.567444 1023.722412,900.451233
M900.343994,902.380371
	C900.343994,895.955872 900.343994,889.531372 900.343994,883.106873
	C896.172363,886.448425 896.363098,908.296265 899.881226,911.455688
	C900.057373,908.353271 900.199890,905.841858 900.343994,902.380371
M678.722351,898.483276
	C678.213867,893.368896 679.846680,887.982666 677.307434,882.227539
	C674.399963,887.559631 674.803162,908.276123 678.721802,910.883301
	C678.721802,907.078186 678.721802,903.273132 678.722351,898.483276
z" />
	<path fill="#F6F2F2" opacity="1.000000" stroke="none" d="
M272.314514,750.000000
	C272.771149,733.366821 271.336182,716.910034 274.030579,701.159729
	C282.879883,649.430786 313.386597,615.635742 363.918732,601.685974
	C429.027222,583.712280 495.977325,622.455872 513.606262,687.599243
	C516.484192,698.233948 517.744019,709.607605 517.812561,720.651733
	C518.202332,783.452393 517.963257,846.256775 518.092773,909.059570
	C518.101624,913.346680 517.065369,914.796265 512.568481,914.789001
	C434.273071,914.663391 355.977325,914.660156 277.681946,914.794800
	C273.014801,914.802795 272.232361,913.036255 272.240967,908.923462
	C272.351501,856.115845 272.314056,803.307861 272.314514,750.000000
M356.165527,609.441772
	C347.972870,613.492554 339.255981,616.746460 331.678101,621.731689
	C298.443085,643.595703 279.039886,674.505310 278.315674,714.413208
	C277.172913,777.386230 278.035767,840.395752 278.066528,903.389832
	C278.067383,905.142273 278.260071,906.894531 278.351593,908.448303
	C279.301117,908.692078 279.622070,908.846375 279.943146,908.846619
	C320.105286,908.882874 360.267456,908.886719 400.429504,908.967407
	C404.223602,908.975037 404.871582,907.147278 404.420624,903.889587
	C402.707703,891.515381 401.136108,879.121704 399.467987,866.741211
	C398.680389,860.895569 397.793701,855.063354 396.951904,849.225037
	C396.330261,849.272949 395.708618,849.320862 395.086975,849.368774
	C395.653351,860.402100 396.258667,871.433716 396.736084,882.470886
	C396.794922,883.831848 396.479645,885.436829 395.734222,886.509277
	C395.357391,887.051392 392.864380,887.034668 392.655365,886.612854
	C391.989014,885.268311 391.705841,883.609863 391.742188,882.083740
	C391.767487,881.022217 392.947021,879.981567 392.954102,878.927246
	C393.043213,865.673523 393.012573,852.419067 393.012573,838.271179
	C380.802338,838.271179 368.508667,838.413330 356.221069,838.202637
	C351.151154,838.115723 348.663727,840.158508 347.594696,845.076965
	C344.481903,859.398071 341.036377,873.646606 337.849396,887.952148
	C337.396759,889.983826 337.804840,892.193604 337.530670,894.283630
	C337.355316,895.620300 336.925934,897.124146 336.079376,898.085388
	C335.671661,898.548279 333.283203,898.222046 333.099426,897.747131
	C332.555939,896.342712 332.202850,894.551819 332.609650,893.155151
	C333.558105,889.898865 335.366760,886.875671 336.167603,883.597046
	C339.289764,870.815369 341.916901,857.908264 345.263641,845.188782
	C346.247070,841.451172 349.000244,838.179260 351.024933,834.545654
	C345.594208,830.837708 343.738007,826.105225 346.273804,820.501526
	C349.181183,821.670959 351.992432,823.420349 355.009277,823.914734
	C374.204010,827.059814 392.874664,826.355408 409.939728,815.419983
	C421.825012,807.803833 432.321411,798.601135 441.139526,787.603088
	C443.469147,784.697632 445.957672,781.078491 446.226379,777.620178
	C446.452881,774.705139 443.566345,771.548218 442.315887,769.020264
	C449.098511,770.638672 452.777069,774.131104 451.737091,781.496338
	C450.447754,790.627380 448.231842,799.781494 445.131439,808.467041
	C440.425629,821.650024 430.798401,830.255249 417.207336,834.188538
	C416.161926,834.491150 415.165253,834.962158 414.145905,835.354858
	C419.996246,836.865295 425.381866,838.761597 430.010254,841.808228
	C433.383392,844.028625 435.973175,847.596802 438.540039,850.857178
	C449.327301,864.558777 459.998322,878.352417 470.619232,892.183533
	C471.320709,893.097107 471.688446,894.726379 471.390839,895.794067
	C471.174469,896.570435 469.290527,897.658325 468.702789,897.391235
	C467.522583,896.854736 466.453003,895.625305 465.831543,894.426086
	C465.100555,893.015381 465.298859,891.033447 464.397339,889.814636
	C454.095642,875.886719 443.416992,862.231812 433.333344,848.150024
	C423.973358,835.078918 410.781952,839.389709 398.345795,838.763000
	C398.345795,840.354736 398.248688,841.188232 398.359985,841.992859
	C401.144379,862.122070 404.118530,882.227356 406.637268,902.389465
	C407.280273,907.536560 409.352173,909.053284 414.318695,909.026306
	C444.981598,908.859558 475.646698,908.827942 506.308807,909.057739
	C511.296753,909.095032 512.337280,907.465515 512.326111,902.805481
	C512.181641,842.478149 512.290283,782.150146 512.151611,721.822754
	C512.134033,714.190308 511.835175,706.410706 510.372314,698.953186
	C500.551392,648.885742 463.704132,612.973877 413.544952,604.307373
	C407.942352,603.339355 402.185547,603.263550 396.057190,602.735840
	C396.057190,605.706909 396.057159,607.520325 396.057159,609.333801
	C396.057098,626.832153 396.048706,644.330566 396.064056,661.828918
	C396.067169,665.370056 395.124237,669.217163 400.108154,670.763977
	C401.292358,671.131409 402.551239,673.357361 402.633026,674.793579
	C402.903381,679.541016 405.785431,681.602417 409.620972,683.556519
	C427.031158,692.426575 439.045532,706.176819 445.598572,724.594482
	C447.657410,730.380859 446.112396,732.683350 440.028625,733.138672
	C430.895233,733.822266 421.732330,734.163879 412.620514,735.047974
	C410.283142,735.274719 407.572479,736.469421 405.921448,738.112061
	C399.170715,744.828979 389.356323,744.812195 382.772491,738.026184
	C381.254974,736.462097 378.731476,735.253906 376.561432,735.050537
	C367.279816,734.180847 357.950989,733.831177 348.651733,733.128174
	C342.207764,732.641052 340.895233,730.444397 343.160736,724.230286
	C349.271912,707.467651 359.416046,693.269287 375.631866,685.985657
	C384.779022,681.877197 384.710022,671.803528 392.264648,667.645142
	C392.761993,667.371399 392.610992,665.758484 392.611938,664.768372
	C392.630524,645.770142 392.555176,626.771423 392.688141,607.774109
	C392.714539,604.005493 391.316040,602.424561 387.697784,603.117798
	C377.426331,605.085999 367.175446,607.161377 356.165527,609.441772
M370.526733,692.970154
	C358.456757,702.142944 350.006714,713.747498 345.768616,728.445984
	C358.374756,732.532104 433.059357,732.618835 442.950409,728.275330
	C442.460297,726.765015 442.041626,725.183105 441.442322,723.672852
	C434.846069,707.050110 423.697937,694.522522 407.604279,686.616333
	C403.135895,684.421204 400.035156,681.647278 399.016876,676.447388
	C398.725037,674.957214 395.994812,673.113281 394.268250,672.986206
	C392.760895,672.875305 389.889526,674.780029 389.703186,676.090332
	C388.883545,681.853333 385.289062,684.643250 380.494629,686.898010
	C377.205658,688.444763 374.219910,690.636292 370.526733,692.970154
M386.507141,735.318420
	C390.097473,741.069763 398.245605,741.170898 402.232697,735.114075
	C397.036194,735.114075 392.093689,735.114075 386.507141,735.318420
z" />
	<path fill="#FCFBFB" opacity="1.000000" stroke="none" d="
M717.709106,813.840271
	C714.909058,820.250610 712.269592,826.315918 709.630127,832.381287
	C709.084229,832.503235 708.538269,832.625183 707.992310,832.747131
	C697.404114,811.101257 686.815918,789.455383 675.569519,766.463928
	C675.170166,769.061462 674.858948,770.221802 674.832520,771.388489
	C674.505127,785.882080 674.236633,800.376953 673.915588,814.870667
	C673.739319,822.828918 673.587402,830.728821 684.266968,832.592041
	C676.170044,832.592041 668.073120,832.592041 659.976196,832.592041
	C671.042114,830.219299 670.232422,821.474548 670.417603,813.349487
	C670.763123,798.189697 671.008423,783.027588 671.331055,767.867249
	C671.588379,755.773682 671.611938,755.774170 660.696228,750.718445
	C666.521057,750.718445 672.395935,750.294861 678.140808,750.972595
	C679.898682,751.179993 681.741272,754.188660 682.795105,756.290527
	C691.901672,774.453247 700.833313,792.703674 709.829041,810.921997
	C710.606812,812.497070 711.471252,814.029419 712.719543,816.380127
	C714.007874,813.600037 714.937134,811.688477 715.788513,809.742859
	C723.466125,792.199097 731.270935,774.708679 738.705811,757.062500
	C740.736145,752.243713 743.221619,749.805908 748.759155,750.596924
	C752.725098,751.163452 756.837097,750.707092 760.875000,751.012024
	C748.710938,755.308594 748.810547,755.303101 749.556396,768.893188
	C750.432922,784.864502 751.162292,800.844421 751.864014,816.824585
	C752.380493,828.587097 752.314941,828.589966 763.291443,832.598755
	C752.221191,832.598755 742.241577,832.598755 731.718506,832.598755
	C732.419189,832.012207 732.783752,831.450500 733.237915,831.364929
	C741.347778,829.837830 741.650391,829.469788 741.301758,821.438965
	C740.579163,804.792297 739.872375,788.144836 739.146545,771.498352
	C739.084290,770.070435 738.928955,768.646545 737.866455,766.971252
	C731.200867,782.479248 724.535278,797.987244 717.709106,813.840271
z" />
	<path fill="#FCFBFB" opacity="1.000000" stroke="none" d="
M840.573059,701.901367
	C842.375671,699.809387 844.963257,697.804443 844.990845,695.764893
	C845.287231,673.790100 845.181274,651.809998 845.182678,629.831299
	C845.182922,626.052063 843.242371,623.981140 839.550049,623.448242
	C838.108398,623.240112 836.671936,622.995728 833.994934,622.571777
	C835.780701,621.932373 836.424133,621.500061 837.066406,621.501770
	C850.368652,621.538025 863.776428,620.585510 876.950195,621.924744
	C901.232483,624.393433 916.690674,641.625244 915.726135,663.332886
	C914.684998,686.764771 897.116638,703.840759 872.687744,704.505310
	C860.554932,704.835327 848.394958,704.173828 836.247803,703.932373
	C835.865662,703.924805 835.489868,703.601379 835.098816,702.511475
	C836.789001,702.331726 838.479126,702.151978 840.573059,701.901367
M863.149963,624.009338
	C858.729248,624.603943 856.104126,627.055542 856.088135,631.576172
	C856.015747,652.033447 856.005676,672.491272 856.096619,692.948364
	C856.117676,697.684143 858.616699,700.590759 863.416321,701.645386
	C878.585266,704.978394 894.180298,696.894653 900.167969,682.550720
	C903.750549,673.968567 903.941162,665.015625 902.846436,656.044983
	C900.144592,633.905029 886.059326,622.370789 863.149963,624.009338
z" />
	<path fill="#FCFBFB" opacity="1.000000" stroke="none" d="
M1052.061401,752.951782
	C1073.381470,761.284607 1083.141602,777.397095 1079.844971,798.293091
	C1076.667603,818.432617 1059.653442,832.868896 1037.474976,833.498901
	C1025.351685,833.843262 1013.199463,833.170898 1001.060791,832.930237
	C1000.673340,832.922607 1000.291809,832.619202 999.848328,832.428223
	C1000.142334,832.003845 1000.273926,831.583374 1000.492004,831.532349
	C1010.069214,829.289856 1010.078430,829.293762 1010.082275,819.114441
	C1010.088989,801.142395 1010.203491,783.169189 1010.038391,765.198669
	C1009.944031,754.927124 1011.838806,754.109558 999.971252,750.826050
	C1017.175903,752.615906 1034.583496,747.231384 1052.061401,752.951782
M1058.785767,821.256836
	C1067.730591,811.246094 1069.074341,799.140625 1067.804565,786.582214
	C1065.454834,763.341980 1050.363281,750.492371 1028.798340,752.924011
	C1023.191589,753.556213 1020.940613,755.701965 1020.917969,761.201965
	C1020.835083,781.341736 1020.823792,801.482605 1020.947693,821.622009
	C1020.983826,827.500793 1023.476257,830.181091 1029.339722,830.799377
	C1040.231812,831.947937 1050.238892,829.917664 1058.785767,821.256836
z" />
	<path fill="#FCFBFB" opacity="1.000000" stroke="none" d="
M1044.097168,620.030640
	C1068.572998,620.161438 1085.780396,635.955261 1087.311157,659.251648
	C1088.765503,681.385315 1071.751465,701.677551 1048.959839,704.992249
	C1028.708130,707.937561 1011.699890,699.541443 1003.568848,682.585144
	C995.232239,665.200073 998.632324,645.007141 1012.220154,632.527466
	C1021.054260,624.413757 1031.793335,620.778564 1044.097168,620.030640
M1011.939880,667.290771
	C1013.077637,675.685181 1015.795654,683.491882 1021.074890,690.190002
	C1028.715088,699.883667 1038.702393,704.152100 1050.987671,702.054749
	C1062.357910,700.113464 1069.262573,692.668640 1072.643921,682.224365
	C1076.997803,668.775513 1076.560425,655.208618 1070.224731,642.399780
	C1068.071777,638.047119 1064.860352,633.840698 1061.169067,630.700012
	C1051.804688,622.732422 1040.727905,621.117432 1029.303223,625.247070
	C1018.234375,629.248047 1013.423706,638.504333 1012.060364,649.536560
	C1011.374390,655.086975 1011.887085,660.785645 1011.939880,667.290771
z" />
	<path fill="#FCFBFB" opacity="1.000000" stroke="none" d="
M912.041748,769.984863
	C909.980652,767.591492 908.144592,765.471497 905.630676,762.568909
	C905.343933,764.685486 905.047241,765.863831 905.045288,767.042725
	C905.017273,783.863831 904.967590,800.685242 905.056335,817.505981
	C905.104126,826.564453 906.954834,829.076782 914.990784,832.445923
	C907.033752,832.445923 899.076660,832.445923 891.119629,832.445923
	C902.262817,830.294739 901.519958,821.642151 901.533020,813.450623
	C901.558960,797.129089 901.542969,780.807556 901.540100,764.486023
	C901.538757,756.711304 900.471375,755.231384 893.027710,752.581909
	C892.152039,752.270203 891.300293,751.891174 890.551697,750.540161
	C896.806763,750.540161 903.073303,750.338745 909.308167,750.693604
	C910.718689,750.773926 912.234741,752.609009 913.338013,753.938538
	C929.608032,773.545471 945.812683,793.206482 962.054810,812.836609
	C962.626709,813.527893 963.425598,814.031311 964.677673,815.098816
	C964.827698,812.943115 965.011597,811.517334 965.013123,810.091431
	C965.028503,795.268860 965.076782,780.445862 964.985352,765.623779
	C964.931091,756.826782 963.175720,754.448608 955.281189,751.042236
	C963.104980,751.042236 970.928833,751.042236 978.752625,751.042236
	C967.588867,753.506775 968.480774,762.327576 968.468445,770.620667
	C968.439819,789.940063 968.458984,809.259399 968.458801,828.578796
	C968.458801,830.531189 968.458801,832.483582 968.458801,834.435974
	C967.982239,834.665039 967.505737,834.894165 967.029175,835.123230
	C948.775024,813.501587 930.520874,791.879944 912.041748,769.984863
z" />
	<path fill="#FBFAFA" opacity="1.000000" stroke="none" d="
M749.933960,644.006348
	C750.228516,656.313477 749.554077,668.246338 751.051208,679.900146
	C753.146790,696.211243 766.482056,704.430603 782.435242,700.707581
	C792.347046,698.394470 799.377563,690.315979 799.806946,678.911865
	C800.364441,664.105225 800.159180,649.260315 799.921631,634.437622
	C799.814941,627.780884 797.442444,625.663086 787.544250,621.955139
	C797.244385,621.955139 805.647644,621.955139 814.050903,621.955139
	C804.016541,624.305603 803.849243,632.001648 803.898621,639.957397
	C803.973083,651.953003 804.121155,663.956055 803.800781,675.944214
	C803.410645,690.544983 795.418579,700.879822 782.349609,704.478577
	C767.363708,708.605103 750.884033,703.706787 744.301025,691.939697
	C741.348816,686.662537 739.847656,680.061646 739.486084,673.954956
	C738.758606,661.668152 739.498596,649.302551 739.189819,636.980530
	C738.920349,626.226440 741.883423,625.431458 729.078430,621.875244
	C739.379211,621.875244 749.679932,621.875244 760.175842,621.875244
	C759.866272,622.418579 759.762634,622.843323 759.585388,622.876709
	C750.211670,624.641602 749.966125,624.929810 749.936890,634.510132
	C749.927795,637.509277 749.934509,640.508362 749.933960,644.006348
z" />
	<path fill="#FBFAFA" opacity="1.000000" stroke="none" d="
M854.928223,809.901367
	C856.929688,813.970581 858.692871,817.741760 860.645142,821.412354
	C863.171570,826.162292 865.980286,830.692749 871.827209,832.490479
	C861.983337,832.490479 852.139526,832.490479 842.239136,832.490479
	C842.406311,832.108215 842.484192,831.614319 842.658142,831.577820
	C851.232239,829.777039 851.841675,828.536133 847.922485,820.321289
	C843.838257,811.760559 839.597778,803.272949 835.619751,794.663696
	C834.346558,791.908203 832.778992,790.574585 829.593933,790.712280
	C824.109375,790.949280 818.585266,790.502380 813.124878,790.936035
	C811.312378,791.079956 808.834534,792.650452 808.050659,794.249878
	C804.612244,801.264893 801.554016,808.476929 798.601196,815.716797
	C794.622925,825.470703 797.104431,829.716492 807.351013,831.223450
	C807.982849,831.316467 808.591797,831.565186 809.163086,832.454834
	C799.184509,832.454834 789.205933,832.454834 779.227356,832.454834
	C789.982117,830.299316 792.437561,820.954651 796.047424,812.796814
	C804.732910,793.168579 813.197998,773.442749 821.763367,753.761292
	C822.409851,752.275818 823.146118,750.829285 824.585144,747.794495
	C835.055237,769.215454 844.914612,789.387024 854.928223,809.901367
M823.075195,768.522461
	C822.416992,767.451599 821.758789,766.380737 820.587769,764.475525
	C817.141174,772.457153 814.048218,779.619690 810.748596,787.260986
	C818.217834,787.260986 824.726990,787.260986 831.959961,787.260986
	C828.906067,780.820679 826.147095,775.002319 823.075195,768.522461
z" />
	<path fill="#FBFAFA" opacity="1.000000" stroke="none" d="
M1130.373047,782.215759
	C1135.294556,770.955933 1140.046875,760.035400 1145.339355,747.874023
	C1146.939819,750.803894 1147.930786,752.455017 1148.770386,754.179810
	C1158.967651,775.126099 1169.069702,796.119141 1179.368042,817.015442
	C1182.415894,823.200012 1184.995728,830.026367 1192.838623,832.507141
	C1182.989868,832.507141 1173.140991,832.507141 1163.207886,832.507141
	C1163.414307,832.073853 1163.503906,831.586426 1163.684326,831.550110
	C1172.178955,829.839966 1172.836060,828.612671 1169.105103,820.745483
	C1164.969360,812.025208 1160.646240,803.392700 1156.603394,794.630310
	C1155.323364,791.856018 1153.720215,790.583618 1150.556885,790.713196
	C1144.905151,790.944702 1139.218872,790.532349 1133.587646,790.944092
	C1131.953125,791.063660 1129.756592,792.735840 1129.017212,794.273193
	C1125.630005,801.315796 1122.536499,808.509338 1119.586792,815.750122
	C1115.616699,825.495850 1118.086792,829.686340 1128.386597,831.228210
	C1129.009888,831.321533 1129.608398,831.581299 1130.176025,832.472168
	C1120.195068,832.472168 1110.214111,832.472168 1100.233154,832.472168
	C1110.594849,830.462646 1113.135254,821.543945 1116.690430,813.691589
	C1121.356201,803.385803 1125.713867,792.940369 1130.373047,782.215759
M1143.439087,787.686279
	C1146.355347,787.686279 1149.271606,787.686279 1153.226074,787.686279
	C1149.297241,779.502075 1145.858276,772.338318 1141.822388,763.931030
	C1138.138184,772.463135 1135.049316,779.616638 1131.565063,787.685730
	C1135.937988,787.685730 1139.213257,787.685730 1143.439087,787.686279
z" />
	<path fill="#FBFAFA" opacity="1.000000" stroke="none" d="
M595.353455,750.837036
	C606.386658,773.426331 617.210022,795.736816 628.116760,818.006470
	C631.022217,823.938843 633.807068,830.088440 640.994385,832.592163
	C631.266357,832.592163 621.538391,832.592163 611.666748,832.592163
	C611.945801,832.084045 612.045593,831.638428 612.234131,831.597107
	C620.257507,829.837219 620.993652,828.425232 617.441223,820.945984
	C613.228699,812.076782 608.840332,803.290283 604.697144,794.389282
	C603.482605,791.780151 601.913391,790.622437 598.973816,790.724792
	C593.485168,790.915771 587.980591,790.916504 582.491943,790.727234
	C579.511292,790.624451 578.013245,791.840027 576.922363,794.520081
	C574.037292,801.608276 570.809937,808.556641 567.894958,815.633240
	C563.777466,825.629272 566.226074,829.735413 576.962952,831.237366
	C577.558289,831.320679 578.125977,831.601379 578.649048,832.515503
	C568.561462,832.515503 558.473877,832.515503 547.932190,832.515503
	C548.534302,831.988953 548.924866,831.344360 549.360840,831.312073
	C555.316162,830.870789 558.629456,826.921082 560.865540,822.111206
	C566.125000,810.797913 571.115417,799.358521 576.135193,787.935181
	C581.290039,776.204651 586.307129,764.413330 591.513123,752.705811
	C592.085876,751.417725 592.110107,748.075684 595.353455,750.837036
M581.688110,787.547729
	C587.925232,787.547729 594.162354,787.547729 601.420776,787.547729
	C597.545227,779.461365 594.123230,772.321228 590.701172,765.181091
	C590.151550,765.207153 589.601868,765.233154 589.052246,765.259216
	C586.367859,772.590210 583.683472,779.921143 581.688110,787.547729
z" />
	<path fill="#FCFBFB" opacity="1.000000" stroke="none" d="
M675.484558,698.024170
	C679.205505,700.211365 682.781860,701.993225 686.005981,703.599548
	C675.222961,703.599548 663.769470,703.599548 652.315979,703.599548
	C652.264038,703.364319 652.212036,703.129089 652.160095,702.893860
	C653.282166,702.658813 654.393982,702.309937 655.528015,702.207153
	C662.779724,701.550110 664.035400,700.277161 664.070679,692.864746
	C664.130188,680.366150 664.097107,667.867126 664.094604,655.368286
	C664.093018,647.369080 663.990234,639.368713 664.099854,631.371155
	C664.162109,626.829529 662.086670,624.767822 657.627563,624.287781
	C645.875732,623.022644 638.972717,627.350891 635.152466,638.675293
	C634.655884,640.147339 634.106689,641.601624 632.493530,642.804382
	C633.088623,634.806641 633.683716,626.808899 634.233337,619.421570
	C637.479980,620.105591 640.574341,621.296204 643.678589,621.322632
	C661.503906,621.474976 679.332703,621.447144 697.157104,621.225220
	C700.078552,621.188843 702.984253,619.885498 706.340393,619.058472
	C705.977051,626.519836 705.586914,634.531860 705.196777,642.543823
	C704.783142,642.590332 704.369568,642.636841 703.955994,642.683350
	C703.568787,640.864197 703.228149,639.033630 702.786621,637.227783
	C700.162720,626.497131 688.521179,620.595276 678.417664,625.178040
	C676.864990,625.882263 675.209534,628.442017 675.200378,630.152222
	C675.079346,652.640259 675.245667,675.129761 675.484558,698.024170
z" />
	<path fill="#FCFBFB" opacity="1.000000" stroke="none" d="
M593.716187,662.331543
	C600.116821,666.613403 605.284729,671.442017 606.713806,679.078796
	C608.724915,689.825806 602.328308,700.108459 591.087646,703.774536
	C581.711304,706.832458 572.412903,706.095825 563.256897,702.456055
	C560.060059,701.185120 558.618652,699.183716 558.526550,695.718079
	C558.383118,690.322876 557.869324,684.937500 558.566162,679.368469
	C560.615540,683.441101 562.492126,687.612854 564.757080,691.561829
	C567.726685,696.739380 571.652222,700.880615 577.789978,702.430420
	C590.470703,705.632446 599.439575,696.987061 596.554138,684.246399
	C595.149780,678.045410 591.336609,673.527283 586.299683,669.993408
	C580.580872,665.981201 574.291687,662.660095 569.073975,658.096863
	C565.363037,654.851318 561.853821,650.440857 560.301147,645.856995
	C557.093140,636.386414 562.025879,627.131958 571.357849,622.925903
	C580.318237,618.887451 589.456299,619.334961 598.662964,622.166504
	C601.832947,623.141418 603.236572,624.970825 603.071594,628.373352
	C602.856873,632.800354 603.019104,637.245667 602.460938,641.996643
	C601.788574,640.329407 601.163940,638.641113 600.435669,636.998657
	C597.391113,630.132690 593.871155,623.736450 585.332031,622.669128
	C579.937744,621.994873 574.877502,622.682617 571.463135,627.442566
	C567.836365,632.498779 567.581726,638.244690 570.487183,643.495972
	C572.349304,646.861572 575.351624,649.844177 578.438477,652.226746
	C583.164917,655.874695 588.405090,658.857056 593.716187,662.331543
z" />
	<path fill="#FCFBFB" opacity="1.000000" stroke="none" d="
M951.983154,681.990112
	C951.983154,666.512451 951.983948,651.532776 951.982971,636.553040
	C951.982239,625.209045 951.981201,625.209045 941.604980,621.936401
	C952.028931,621.936401 962.452881,621.936401 973.782959,621.936401
	C962.838501,625.786743 962.835510,625.786743 962.834656,637.136902
	C962.833252,655.278992 962.821411,673.421143 962.843628,691.563232
	C962.854614,700.584900 962.985474,700.697083 971.862671,702.393005
	C972.246521,702.466370 972.563660,702.888977 973.585815,703.651733
	C962.482483,703.651733 952.157288,703.651733 941.832153,703.651733
	C941.770813,703.421448 941.709473,703.191162 941.648132,702.960876
	C942.743835,702.691223 943.837463,702.200134 944.935669,702.189758
	C950.114197,702.140442 951.936218,699.145813 951.957214,694.471741
	C951.975159,690.477234 951.975159,686.482666 951.983154,681.990112
z" />
	<path fill="#F8F5F6" opacity="1.000000" stroke="none" d="
M610.042236,889.145996
	C615.658752,882.760376 622.923950,881.028198 629.459717,884.251831
	C635.274536,887.119873 639.003540,893.789124 636.708435,900.086487
	C635.083557,904.545044 631.199768,908.180298 627.988586,912.650452
	C630.285828,915.567139 633.886536,913.619629 637.522278,912.195923
	C636.159668,916.379822 632.064331,917.741638 627.641663,915.682495
	C623.351562,913.685120 619.082031,911.623108 614.923767,909.367737
	C607.930542,905.574707 606.004883,897.756714 610.042236,889.145996
M634.039368,898.219177
	C633.848450,889.876831 629.151855,885.145752 621.570496,885.658752
	C614.689575,886.124390 610.210205,891.611023 610.997437,898.609497
	C611.590271,903.880005 615.801270,907.848022 621.303528,908.320984
	C627.766846,908.876465 631.835205,905.895386 634.039368,898.219177
z" />
	<path fill="#F8F5F6" opacity="1.000000" stroke="none" d="
M932.869446,896.999634
	C932.869324,901.887268 932.869324,906.280518 932.869324,910.673828
	C932.187256,910.999573 931.505249,911.325317 930.823181,911.651123
	C925.158875,904.610718 919.494568,897.570374 913.830261,890.529968
	C913.293640,890.644104 912.756958,890.758301 912.220276,890.872437
	C912.220276,897.535461 912.220276,904.198486 912.220276,912.003113
	C908.787231,908.500366 908.139221,889.301758 910.641052,881.739014
	C916.634155,889.119446 922.115356,895.869385 927.596497,902.619324
	C928.264648,902.451050 928.932861,902.282776 929.601074,902.114502
	C929.601074,895.782593 929.601074,889.450684 929.601074,883.118713
	C930.476013,883.087097 931.350952,883.055420 932.225891,883.023743
	C933.542480,887.358948 932.551636,892.026367 932.869446,896.999634
z" />
	<path fill="#F6F2F2" opacity="1.000000" stroke="none" d="
M601.109863,906.888550
	C601.881470,908.171326 602.447998,909.156067 603.014465,910.140869
	C602.749268,910.466187 602.484070,910.791504 602.218872,911.116821
	C601.031494,910.198853 599.688171,909.422852 598.692505,908.330200
	C597.131348,906.616699 596.114014,904.272705 594.315430,902.938477
	C590.427612,900.054382 585.264526,902.797974 584.676453,907.719360
	C584.541931,908.844910 584.047180,909.927307 583.718262,911.029602
	C583.212158,910.975647 582.706055,910.921692 582.199951,910.867737
	C582.199951,901.845337 582.199951,892.822998 582.199951,883.203552
	C586.351624,883.203552 590.793152,882.871704 595.159241,883.303284
	C598.999939,883.682922 602.095154,885.772827 603.107056,889.868164
	C604.106873,893.914612 603.300354,897.465820 599.828613,900.135559
	C599.196533,900.621643 598.633057,901.196899 597.799316,901.945068
	C598.904419,903.598206 599.904541,905.094360 601.109863,906.888550
M592.199158,885.790771
	C589.847168,886.187622 585.687927,886.144775 585.465332,887.059692
	C584.632324,890.483459 584.501648,894.375916 585.396667,897.750671
	C585.685791,898.840637 589.933716,899.277039 592.380005,899.309814
	C596.546814,899.365601 600.005615,897.920898 600.193604,892.929993
	C600.376099,888.085510 597.507385,886.144653 592.199158,885.790771
z" />
	<path fill="#F6F2F2" opacity="1.000000" stroke="none" d="
M991.392883,907.465698
	C991.382202,900.533081 991.557922,894.037476 991.312561,887.557861
	C991.167053,883.714661 992.710266,882.487671 996.300110,882.911438
	C997.941101,883.105286 999.623840,882.942566 1001.287659,882.947754
	C1006.189758,882.963135 1010.854431,883.828491 1012.813293,889.005066
	C1014.786011,894.218140 1012.886780,898.443298 1007.717712,901.683838
	C1009.587708,904.602417 1011.381592,907.402222 1013.175476,910.201965
	C1012.701904,910.598877 1012.228271,910.995789 1011.754700,911.392700
	C1010.374451,909.890381 1009.038513,908.344116 1007.602173,906.897583
	C1006.022034,905.306152 1004.591431,902.994507 1002.670837,902.422119
	C997.355225,900.837952 995.483459,902.450989 994.649536,907.993469
	C994.500732,908.982849 993.734497,909.879333 993.253418,910.818726
	C992.636414,909.848938 992.019287,908.879211 991.392883,907.465698
M1010.065125,890.863220
	C1007.852478,886.387390 1002.450317,884.185791 997.032959,885.938782
	C992.899414,887.276367 995.083313,890.998352 994.834167,893.634888
	C994.669556,895.376404 995.119507,898.108826 996.293518,898.883911
	C1001.578674,902.372742 1009.682495,897.986633 1010.065125,890.863220
z" />
	<path fill="#F8F5F6" opacity="1.000000" stroke="none" d="
M1059.400146,898.560181
	C1058.391113,905.221802 1054.778564,909.327332 1048.710205,910.774292
	C1042.844482,912.172974 1037.339600,910.970886 1033.298828,906.134583
	C1029.556274,901.655151 1029.006836,896.471741 1031.250000,891.126648
	C1033.821655,884.998596 1040.648560,881.744812 1047.868774,882.999329
	C1054.971924,884.233582 1059.138794,889.689453 1059.400146,898.560181
M1052.283813,905.946106
	C1053.209229,904.789673 1054.333130,903.740295 1055.024536,902.457764
	C1057.616455,897.650330 1056.305298,891.279358 1052.189453,888.007202
	C1048.177124,884.817322 1041.371582,884.828247 1037.342407,888.031006
	C1033.047852,891.444702 1031.804565,897.470642 1034.372070,902.427917
	C1037.456299,908.382935 1044.429565,909.997192 1052.283813,905.946106
z" />
	<path fill="#FBFAFA" opacity="1.000000" stroke="none" d="
M810.228882,909.706604
	C806.849304,903.775574 802.883545,899.827576 795.488953,902.970703
	C795.125305,905.525330 794.736023,908.260193 794.346741,910.995117
	C793.811768,910.940186 793.276733,910.885254 792.741699,910.830383
	C792.741699,901.808838 792.741699,892.787354 792.741699,883.173340
	C796.752075,883.173340 801.033508,882.879272 805.254639,883.257507
	C809.330322,883.622742 812.556396,885.792053 813.621704,890.019409
	C814.694702,894.277344 813.596069,897.922607 809.746033,900.460144
	C809.227661,900.801819 808.783875,901.256653 808.095276,901.835938
	C810.053345,904.708740 811.910522,907.433472 814.603394,911.384277
	C812.434326,910.650513 811.435120,910.312500 810.228882,909.706604
M795.291992,886.878540
	C795.291992,890.947632 795.291992,895.016785 795.291992,899.803711
	C799.002991,899.560486 802.279053,899.570068 805.477600,899.076477
	C809.064941,898.523010 810.989380,896.105713 810.914978,892.463501
	C810.835022,888.551819 808.582092,886.262512 804.766663,885.969116
	C801.831909,885.743469 798.853821,886.082703 795.291992,886.878540
z" />
	<path fill="#FBFAFA" opacity="1.000000" stroke="none" d="
M1084.284424,909.765076
	C1080.856445,903.909058 1076.997681,899.726501 1069.486084,903.010742
	C1069.137207,905.492432 1068.753418,908.221924 1068.369629,910.951416
	C1067.832642,910.909729 1067.295776,910.867981 1066.758789,910.826294
	C1066.758789,901.806213 1066.758789,892.786133 1066.758789,882.986450
	C1069.748291,882.986450 1073.016724,882.954285 1076.284302,882.994019
	C1081.257324,883.054443 1085.724243,884.277100 1087.456665,889.577637
	C1089.147827,894.751587 1087.093872,898.673340 1082.101318,901.559021
	C1083.996826,904.519653 1085.835083,907.391052 1088.293701,911.231384
	C1086.389038,910.631592 1085.448608,910.335388 1084.284424,909.765076
M1070.769043,885.862976
	C1069.973633,890.231384 1069.178223,894.599854 1068.203613,899.952332
	C1073.281372,899.544983 1077.016479,900.027100 1079.992310,898.745850
	C1082.161011,897.812256 1084.210815,894.737183 1084.723633,892.284363
	C1085.399170,889.052917 1082.953003,886.644165 1079.611206,886.101990
	C1077.019775,885.681519 1074.333496,885.844543 1070.769043,885.862976
z" />
	<path fill="#F6F2F2" opacity="1.000000" stroke="none" d="
M971.243896,908.197205
	C975.951538,908.344116 980.187134,908.473083 984.422668,908.601990
	C984.397644,909.221619 984.372681,909.841309 984.347656,910.460999
	C978.056091,910.460999 971.764587,910.460999 965.086121,910.460999
	C965.086121,901.560120 965.086121,892.501221 965.086121,883.265503
	C971.424927,883.265503 977.506714,883.265503 983.588501,883.265503
	C983.719360,883.574097 983.850220,883.882690 983.981079,884.191345
	C983.208313,884.694397 982.462402,885.575134 981.657898,885.632324
	C978.838318,885.832642 975.976074,885.985229 973.171692,885.718018
	C968.940552,885.314819 967.606262,887.048096 967.854004,891.145142
	C968.028442,894.029053 968.779785,895.513977 971.883362,895.347168
	C974.374939,895.213318 976.885925,895.247986 979.377075,895.396667
	C980.321350,895.453003 981.234009,896.037659 982.161133,896.381409
	C982.114746,896.833557 982.068359,897.285645 982.021973,897.737793
	C977.563171,897.935730 973.104370,898.133606 968.089355,898.356262
	C969.093933,901.892578 965.127625,906.094666 971.243896,908.197205
z" />
	<path fill="#F6F2F2" opacity="1.000000" stroke="none" d="
M720.987732,885.770508
	C717.478394,886.034790 713.548889,884.456970 713.632324,890.162659
	C713.688293,893.993164 714.773193,895.710632 718.778687,895.377502
	C721.752991,895.130066 724.764465,895.328796 727.759338,895.328796
	C727.768066,896.243774 727.776733,897.158752 727.785461,898.073730
	C724.543030,898.073730 721.284973,898.273254 718.062195,898.021545
	C714.311768,897.728577 713.587646,899.605774 713.676453,902.808350
	C713.760864,905.850220 713.659485,908.572510 717.990051,908.260376
	C720.971313,908.045593 723.984436,908.154053 726.976868,908.276245
	C728.080872,908.321411 729.166321,908.819641 730.260254,909.111145
	C730.207092,909.558716 730.153870,910.006287 730.100708,910.453857
	C723.829590,910.453857 717.558533,910.453857 710.822937,910.453857
	C710.822937,901.586609 710.822937,892.553406 710.822937,883.500427
	C717.257202,883.500427 723.376953,883.500427 729.496704,883.500427
	C729.530762,884.098694 729.564819,884.696960 729.598877,885.295166
	C726.886230,885.453674 724.173523,885.612183 720.987732,885.770508
z" />
	<path fill="#F6F2F2" opacity="1.000000" stroke="none" d="
M840.847290,902.009827
	C842.152588,905.023621 843.307068,907.693787 844.461548,910.363953
	C844.120056,910.750244 843.778564,911.136536 843.437073,911.522827
	C839.678711,907.749084 837.267822,903.196228 830.382324,903.191711
	C823.497620,903.187256 821.416748,907.887085 817.778503,911.554382
	C817.382874,911.164307 816.987244,910.774231 816.591614,910.384155
	C819.482910,903.970398 822.254089,897.498474 825.319946,891.169189
	C826.703430,888.312988 828.673950,885.741028 830.378174,883.040161
	C832.226868,885.774414 834.289429,888.391479 835.868286,891.273621
	C837.699402,894.616333 839.105774,898.191772 840.847290,902.009827
M826.612732,895.096008
	C825.906860,896.862427 825.200989,898.628845 824.392334,900.652466
	C828.818909,900.652466 832.531616,900.652466 836.981873,900.652466
	C834.833801,895.857300 832.947449,891.646301 830.577393,886.355530
	C828.964783,889.911499 827.942505,892.165588 826.612732,895.096008
z" />
	<path fill="#F6F2F2" opacity="1.000000" stroke="none" d="
M575.281982,907.349243
	C575.707947,908.575500 575.994202,909.477173 576.280457,910.378845
	C576.035278,910.700867 575.790161,911.022827 575.545044,911.344849
	C571.526123,908.471313 569.972900,902.713379 562.935242,903.239624
	C556.497498,903.721069 553.071777,906.353760 550.260986,911.683655
	C549.961487,911.365784 549.661987,911.047913 549.362488,910.730103
	C549.425293,909.863281 549.253479,908.891479 549.587097,908.145935
	C552.987488,900.546814 556.417786,892.959595 559.992126,885.441528
	C560.469849,884.436829 561.851501,883.152588 562.708130,883.226685
	C563.660889,883.309204 564.820007,884.642822 565.322632,885.700928
	C568.680359,892.768738 571.886658,899.908325 575.281982,907.349243
M565.832214,901.001587
	C566.560547,900.188049 568.071533,899.079651 567.893616,898.607422
	C566.459351,894.799622 564.707092,891.111694 562.557678,886.274780
	C560.133850,891.754761 558.241821,896.032532 556.040710,901.008850
	C559.731628,901.008850 562.370605,901.008850 565.832214,901.001587
z" />
	<path fill="#F8F5F6" opacity="1.000000" stroke="none" d="
M1120.194336,888.048096
	C1124.816528,881.553040 1134.611084,880.802307 1138.326904,886.820618
	C1135.317627,886.341431 1132.647461,885.619080 1129.964722,885.567871
	C1126.942261,885.510132 1123.613770,885.929932 1123.119141,889.822754
	C1122.640747,893.585938 1125.749023,894.309387 1128.493286,895.161804
	C1131.025513,895.948364 1133.660156,896.538452 1136.035522,897.666016
	C1139.745483,899.427124 1141.526733,902.965515 1139.150879,906.220276
	C1137.383423,908.641479 1133.759888,910.419739 1130.683594,910.997498
	C1126.638794,911.757202 1122.302002,911.103027 1119.924561,906.260132
	C1120.894653,906.482483 1121.859131,906.734009 1122.835938,906.921448
	C1125.573120,907.446716 1128.440552,908.672302 1131.016357,908.228271
	C1133.137817,907.862488 1134.915894,905.505127 1136.846191,904.030518
	C1135.227539,902.404724 1133.828979,900.418152 1131.926392,899.258118
	C1130.151001,898.175659 1127.819946,898.033020 1125.768921,897.367737
	C1121.413574,895.955017 1119.012207,893.250854 1120.194336,888.048096
z" />
	<path fill="#F8F5F6" opacity="1.000000" stroke="none" d="
M650.646606,910.496216
	C648.863098,909.255005 646.879639,908.464355 646.081787,907.019165
	C641.826477,899.311340 644.328552,891.195251 643.908264,883.242554
	C644.583740,883.145508 645.259216,883.048523 645.934753,882.951477
	C646.261780,884.157654 646.835022,885.356506 646.871399,886.571411
	C647.000916,890.896484 646.834534,895.231079 646.991455,899.554504
	C647.203369,905.391968 649.853516,908.190674 655.008057,908.337708
	C660.461914,908.493286 663.393799,905.785889 663.804199,899.761292
	C664.075256,895.782776 663.866882,891.773376 663.952087,887.779480
	C663.984680,886.254578 664.237488,884.734375 664.497131,882.141357
	C665.817566,883.543640 666.723267,884.059448 666.720703,884.570679
	C666.690002,890.711304 667.150391,896.946960 666.229797,902.966187
	C665.174194,909.868225 659.965637,912.101929 650.646606,910.496216
z" />
	<path fill="#F8F5F6" opacity="1.000000" stroke="none" d="
M1094.977905,895.016357
	C1094.977905,890.906189 1094.977905,887.290771 1094.977905,883.400024
	C1101.672607,883.400024 1107.795044,883.400024 1113.917480,883.400024
	C1114.019409,883.747375 1114.121338,884.094727 1114.223267,884.442078
	C1113.379517,884.868774 1112.555786,885.608643 1111.688477,885.663757
	C1109.040771,885.832275 1106.347046,885.991638 1103.725098,885.688416
	C1099.050293,885.147827 1097.591064,887.068604 1097.954834,891.585693
	C1098.178589,894.363098 1099.090088,895.458191 1101.819824,895.374817
	C1105.289307,895.268738 1108.764526,895.349121 1112.237183,895.349121
	C1112.243652,896.076843 1112.250000,896.804504 1112.256348,897.532227
	C1107.840698,897.532227 1103.425049,897.532227 1098.925049,897.532227
	C1098.513550,899.213989 1098.138184,900.122620 1098.089111,901.048462
	C1097.708374,908.240417 1097.727905,908.243530 1104.838135,908.255432
	C1108.112427,908.260925 1111.386841,908.256409 1114.661133,908.256409
	C1114.662354,908.967896 1114.663574,909.679382 1114.664673,910.390869
	C1108.417114,910.390869 1102.169434,910.390869 1094.977905,910.390869
	C1094.977905,905.648438 1094.977905,900.579773 1094.977905,895.016357
z" />
	<path fill="#F8F5F6" opacity="1.000000" stroke="none" d="
M870.945435,911.043518
	C867.185669,911.043518 863.908447,911.043518 860.313904,911.043518
	C860.313904,901.541931 860.313904,892.660339 860.313904,883.367554
	C866.603516,883.367554 872.747620,883.367554 878.891724,883.367554
	C879.009155,883.689880 879.126648,884.012207 879.244080,884.334473
	C878.432617,884.794556 877.644287,885.594543 876.805359,885.651733
	C874.158813,885.832275 871.493225,885.728027 868.835144,885.745544
	C862.907349,885.784668 862.702271,886.160645 862.995056,891.964783
	C863.130615,894.651611 864.339417,895.343567 866.705078,895.375488
	C870.000000,895.419983 873.293091,895.645447 876.583801,895.846680
	C876.789246,895.859314 876.966431,896.333862 877.921021,897.635986
	C872.750549,897.892944 868.217102,898.118347 863.555786,898.350037
	C863.368042,899.200684 863.139771,899.816040 863.108276,900.441162
	C862.715332,908.250916 862.722656,908.251770 870.728149,908.256226
	C873.702942,908.257874 876.677673,908.256531 879.652466,908.256531
	C879.659241,909.185547 879.665955,910.114502 879.672729,911.043518
	C876.924500,911.043518 874.176270,911.043518 870.945435,911.043518
z" />
	<path fill="#FBFAFA" opacity="1.000000" stroke="none" d="
M777.949219,905.918640
	C778.839111,900.080750 779.463135,894.559448 780.075256,889.036804
	C780.293274,887.069641 780.482483,885.099182 781.888062,883.053833
	C782.260132,883.809143 782.943420,884.560059 782.954285,885.320557
	C783.030334,890.635803 783.228394,895.970093 782.880188,901.265015
	C782.479370,907.359314 778.483765,910.885559 772.435547,911.148193
	C765.585205,911.445679 761.036194,908.353882 760.358826,902.003601
	C759.762695,896.414917 760.070618,890.724243 760.116211,885.079712
	C760.121887,884.386658 760.973999,883.700378 762.560486,883.168762
	C762.716187,885.333435 762.949219,887.495972 763.008728,889.663269
	C763.090698,892.652344 762.949951,895.648499 763.065796,898.635376
	C763.422424,907.828186 769.778564,911.112854 777.949219,905.918640
z" />
	<path fill="#F6F2F2" opacity="1.000000" stroke="none" d="
M745.501160,910.082886
	C741.985046,911.546509 742.726501,908.906494 742.692993,907.378052
	C742.576599,902.063782 742.414490,896.733032 742.707397,891.432678
	C742.947205,887.092407 741.427795,885.266968 737.021667,885.704590
	C735.697998,885.836060 734.296631,885.184937 732.930847,884.892273
	C733.002563,884.416443 733.074219,883.940674 733.145935,883.464844
	C740.496094,883.464844 747.846252,883.464844 755.196411,883.464844
	C755.287964,883.880432 755.379456,884.295959 755.470947,884.711548
	C754.137024,885.063660 752.747742,885.851807 751.478943,885.690735
	C746.560120,885.066345 745.648743,887.516602 745.816101,891.780457
	C746.050293,897.745728 745.755066,903.731812 745.501160,910.082886
z" />
	<path fill="#F6F2F2" opacity="1.000000" stroke="none" d="
M950.935547,882.942871
	C954.161743,882.942932 956.903564,882.942932 959.645447,882.942932
	C959.741211,883.513367 959.836914,884.083862 959.932678,884.654297
	C958.469055,885.026733 956.972900,885.808411 955.547913,885.695007
	C951.238586,885.352295 950.067566,887.374573 950.252380,891.321533
	C950.485352,896.299988 950.339844,901.298096 950.284180,906.286865
	C950.267029,907.827820 950.010010,909.366089 949.862793,910.905579
	C949.335449,910.965210 948.808105,911.024841 948.280762,911.084534
	C947.881042,909.774963 947.168274,908.472900 947.136353,907.154419
	C947.003540,901.669250 946.909241,896.172302 947.132385,890.693176
	C947.277466,887.130615 946.273865,885.365356 942.404785,885.711731
	C940.803528,885.854980 939.139832,885.301819 937.504578,885.065430
	C937.520752,884.357910 937.536987,883.650391 937.553223,882.942871
	C941.852539,882.942871 946.151917,882.942871 950.935547,882.942871
z" />
	<path fill="#F6F2F2" opacity="1.000000" stroke="none" d="
M684.919678,883.065063
	C692.138428,882.997437 698.954834,882.997437 705.771240,882.997437
	C705.809875,883.666382 705.848511,884.335388 705.887146,885.004333
	C704.133667,885.264587 702.373474,885.777405 700.628235,885.730652
	C697.358215,885.643250 696.202209,887.099487 696.279968,890.250793
	C696.411377,895.577637 696.339905,900.910583 696.285156,906.240295
	C696.269287,907.787231 696.019775,909.331787 695.877319,910.877441
	C695.356262,910.949219 694.835266,911.020996 694.314209,911.092773
	C693.903564,909.790833 693.174011,908.497620 693.138489,907.185486
	C692.998657,902.025574 692.828552,896.844177 693.150391,891.700867
	C693.426941,887.279907 692.185486,885.225952 687.395935,885.685608
	C684.390747,885.974060 684.356018,885.612488 684.919678,883.065063
z" />
	<path fill="#F6F2F2" opacity="1.000000" stroke="none" d="
M1023.722107,900.938354
	C1023.721802,904.567444 1023.721802,907.709412 1023.721802,912.145813
	C1019.827576,908.354919 1019.379517,887.686096 1022.241821,882.268066
	C1024.967041,888.653992 1023.135803,894.690552 1023.722107,900.938354
z" />
	<path fill="#F8F5F6" opacity="1.000000" stroke="none" d="
M900.343262,902.855408
	C900.199890,905.841858 900.057373,908.353271 899.881226,911.455688
	C896.363098,908.296265 896.172363,886.448425 900.343994,883.106873
	C900.343994,889.531372 900.343994,895.955872 900.343262,902.855408
z" />
	<path fill="#F6F2F2" opacity="1.000000" stroke="none" d="
M678.722046,898.975647
	C678.721802,903.273132 678.721802,907.078186 678.721802,910.883301
	C674.803162,908.276123 674.399963,887.559631 677.307434,882.227539
	C679.846680,887.982666 678.213867,893.368896 678.722046,898.975647
z" />
	<path fill="#B6939A" opacity="1.000000" stroke="none" d="
M356.540985,609.318176
	C367.175446,607.161377 377.426331,605.085999 387.697784,603.117798
	C391.316040,602.424561 392.714539,604.005493 392.688141,607.774109
	C392.555176,626.771423 392.630524,645.770142 392.611938,664.768372
	C392.610992,665.758484 392.761993,667.371399 392.264648,667.645142
	C384.710022,671.803528 384.779022,681.877197 375.631866,685.985657
	C359.416046,693.269287 349.271912,707.467651 343.160736,724.230286
	C340.895233,730.444397 342.207764,732.641052 348.651733,733.128174
	C357.950989,733.831177 367.279816,734.180847 376.561432,735.050537
	C378.731476,735.253906 381.254974,736.462097 382.772491,738.026184
	C389.356323,744.812195 399.170715,744.828979 405.921448,738.112061
	C407.572479,736.469421 410.283142,735.274719 412.620514,735.047974
	C421.732330,734.163879 430.895233,733.822266 440.028625,733.138672
	C446.112396,732.683350 447.657410,730.380859 445.598572,724.594482
	C439.045532,706.176819 427.031158,692.426575 409.620972,683.556519
	C405.785431,681.602417 402.903381,679.541016 402.633026,674.793579
	C402.551239,673.357361 401.292358,671.131409 400.108154,670.763977
	C395.124237,669.217163 396.067169,665.370056 396.064056,661.828918
	C396.048706,644.330566 396.057098,626.832153 396.057159,609.333801
	C396.057159,607.520325 396.057190,605.706909 396.057190,602.735840
	C402.185547,603.263550 407.942352,603.339355 413.544952,604.307373
	C463.704132,612.973877 500.551392,648.885742 510.372314,698.953186
	C511.835175,706.410706 512.134033,714.190308 512.151611,721.822754
	C512.290283,782.150146 512.181641,842.478149 512.326111,902.805481
	C512.337280,907.465515 511.296753,909.095032 506.308807,909.057739
	C475.646698,908.827942 444.981598,908.859558 414.318695,909.026306
	C409.352173,909.053284 407.280273,907.536560 406.637268,902.389465
	C404.118530,882.227356 401.144379,862.122070 398.359985,841.992859
	C398.248688,841.188232 398.345795,840.354736 398.345795,838.763000
	C410.781952,839.389709 423.973358,835.078918 433.333344,848.150024
	C443.416992,862.231812 454.095642,875.886719 464.397339,889.814636
	C465.298859,891.033447 465.100555,893.015381 465.831543,894.426086
	C466.453003,895.625305 467.522583,896.854736 468.702789,897.391235
	C469.290527,897.658325 471.174469,896.570435 471.390839,895.794067
	C471.688446,894.726379 471.320709,893.097107 470.619232,892.183533
	C459.998322,878.352417 449.327301,864.558777 438.540039,850.857178
	C435.973175,847.596802 433.383392,844.028625 430.010254,841.808228
	C425.381866,838.761597 419.996246,836.865295 414.145905,835.354858
	C415.165253,834.962158 416.161926,834.491150 417.207336,834.188538
	C430.798401,830.255249 440.425629,821.650024 445.131439,808.467041
	C448.231842,799.781494 450.447754,790.627380 451.737091,781.496338
	C452.777069,774.131104 449.098511,770.638672 442.315887,769.020264
	C443.566345,771.548218 446.452881,774.705139 446.226379,777.620178
	C445.957672,781.078491 443.469147,784.697632 441.139526,787.603088
	C432.321411,798.601135 421.825012,807.803833 409.939728,815.419983
	C392.874664,826.355408 374.204010,827.059814 355.009277,823.914734
	C351.992432,823.420349 349.181183,821.670959 346.273804,820.501526
	C343.738007,826.105225 345.594208,830.837708 351.024933,834.545654
	C349.000244,838.179260 346.247070,841.451172 345.263641,845.188782
	C341.916901,857.908264 339.289764,870.815369 336.167603,883.597046
	C335.366760,886.875671 333.558105,889.898865 332.609650,893.155151
	C332.202850,894.551819 332.555939,896.342712 333.099426,897.747131
	C333.283203,898.222046 335.671661,898.548279 336.079376,898.085388
	C336.925934,897.124146 337.355316,895.620300 337.530670,894.283630
	C337.804840,892.193604 337.396759,889.983826 337.849396,887.952148
	C341.036377,873.646606 344.481903,859.398071 347.594696,845.076965
	C348.663727,840.158508 351.151154,838.115723 356.221069,838.202637
	C368.508667,838.413330 380.802338,838.271179 393.012573,838.271179
	C393.012573,852.419067 393.043213,865.673523 392.954102,878.927246
	C392.947021,879.981567 391.767487,881.022217 391.742188,882.083740
	C391.705841,883.609863 391.989014,885.268311 392.655365,886.612854
	C392.864380,887.034668 395.357391,887.051392 395.734222,886.509277
	C396.479645,885.436829 396.794922,883.831848 396.736084,882.470886
	C396.258667,871.433716 395.653351,860.402100 395.086975,849.368774
	C395.708618,849.320862 396.330261,849.272949 396.951904,849.225037
	C397.793701,855.063354 398.680389,860.895569 399.467987,866.741211
	C401.136108,879.121704 402.707703,891.515381 404.420624,903.889587
	C404.871582,907.147278 404.223602,908.975037 400.429504,908.967407
	C360.267456,908.886719 320.105286,908.882874 279.943146,908.846619
	C279.622070,908.846375 279.301117,908.692078 278.351593,908.448303
	C278.260071,906.894531 278.067383,905.142273 278.066528,903.389832
	C278.035767,840.395752 277.172913,777.386230 278.315674,714.413208
	C279.039886,674.505310 298.443085,643.595703 331.678101,621.731689
	C339.255981,616.746460 347.972870,613.492554 356.540985,609.318176
M362.908020,822.823914
	C364.572632,822.883118 366.247040,822.847229 367.900116,823.018005
	C375.232574,823.775146 381.207336,821.967590 386.789612,816.454285
	C394.892853,808.450928 405.250854,803.741516 416.573669,802.330872
	C430.869385,800.549927 436.517578,789.214966 443.438995,779.264282
	C445.304657,776.582092 444.250641,773.247253 440.810242,772.538940
	C433.720764,771.079285 426.160645,768.319702 419.392487,769.506592
	C390.298187,774.608765 366.796692,789.461365 349.067322,813.283630
	C346.791687,816.341309 347.531372,818.333557 350.544708,819.472839
	C354.246246,820.872253 358.175720,821.668823 362.908020,822.823914
z" />
	<path fill="#B6939A" opacity="1.000000" stroke="none" d="
M370.812683,692.754883
	C374.219910,690.636292 377.205658,688.444763 380.494629,686.898010
	C385.289062,684.643250 388.883545,681.853333 389.703186,676.090332
	C389.889526,674.780029 392.760895,672.875305 394.268250,672.986206
	C395.994812,673.113281 398.725037,674.957214 399.016876,676.447388
	C400.035156,681.647278 403.135895,684.421204 407.604279,686.616333
	C423.697937,694.522522 434.846069,707.050110 441.442322,723.672852
	C442.041626,725.183105 442.460297,726.765015 442.950409,728.275330
	C433.059357,732.618835 358.374756,732.532104 345.768616,728.445984
	C350.006714,713.747498 358.456757,702.142944 370.812683,692.754883
z" />
	<path fill="#B8969D" opacity="1.000000" stroke="none" d="
M386.829163,735.216248
	C392.093689,735.114075 397.036194,735.114075 402.232697,735.114075
	C398.245605,741.170898 390.097473,741.069763 386.829163,735.216248
z" />
	<path fill="#B6939A" opacity="1.000000" stroke="none" d="
M863.593384,623.968262
	C886.059326,622.370789 900.144592,633.905029 902.846436,656.044983
	C903.941162,665.015625 903.750549,673.968567 900.167969,682.550720
	C894.180298,696.894653 878.585266,704.978394 863.416321,701.645386
	C858.616699,700.590759 856.117676,697.684143 856.096619,692.948364
	C856.005676,672.491272 856.015747,652.033447 856.088135,631.576172
	C856.104126,627.055542 858.729248,624.603943 863.593384,623.968262
z" />
	<path fill="#B6939A" opacity="1.000000" stroke="none" d="
M1058.538086,821.519897
	C1050.238892,829.917664 1040.231812,831.947937 1029.339722,830.799377
	C1023.476257,830.181091 1020.983826,827.500793 1020.947693,821.622009
	C1020.823792,801.482605 1020.835083,781.341736 1020.917969,761.201965
	C1020.940613,755.701965 1023.191589,753.556213 1028.798340,752.924011
	C1050.363281,750.492371 1065.454834,763.341980 1067.804565,786.582214
	C1069.074341,799.140625 1067.730591,811.246094 1058.538086,821.519897
z" />
	<path fill="#B6939A" opacity="1.000000" stroke="none" d="
M1011.898804,666.854004
	C1011.887085,660.785645 1011.374390,655.086975 1012.060364,649.536560
	C1013.423706,638.504333 1018.234375,629.248047 1029.303223,625.247070
	C1040.727905,621.117432 1051.804688,622.732422 1061.169067,630.700012
	C1064.860352,633.840698 1068.071777,638.047119 1070.224731,642.399780
	C1076.560425,655.208618 1076.997803,668.775513 1072.643921,682.224365
	C1069.262573,692.668640 1062.357910,700.113464 1050.987671,702.054749
	C1038.702393,704.152100 1028.715088,699.883667 1021.074890,690.190002
	C1015.795654,683.491882 1013.077637,675.685181 1011.898804,666.854004
z" />
	<path fill="#B8969D" opacity="1.000000" stroke="none" d="
M823.231689,768.853210
	C826.147095,775.002319 828.906067,780.820679 831.959961,787.260986
	C824.726990,787.260986 818.217834,787.260986 810.748596,787.260986
	C814.048218,779.619690 817.141174,772.457153 820.587769,764.475525
	C821.758789,766.380737 822.416992,767.451599 823.231689,768.853210
z" />
	<path fill="#B8969D" opacity="1.000000" stroke="none" d="
M1142.963867,787.686035
	C1139.213257,787.685730 1135.937988,787.685730 1131.565063,787.685730
	C1135.049316,779.616638 1138.138184,772.463135 1141.822388,763.931030
	C1145.858276,772.338318 1149.297241,779.502075 1153.226074,787.686279
	C1149.271606,787.686279 1146.355347,787.686279 1142.963867,787.686035
z" />
	<path fill="#B8969D" opacity="1.000000" stroke="none" d="
M581.343628,787.399902
	C583.683472,779.921143 586.367859,772.590210 589.052246,765.259216
	C589.601868,765.233154 590.151550,765.207153 590.701172,765.181091
	C594.123230,772.321228 597.545227,779.461365 601.420776,787.547729
	C594.162354,787.547729 587.925232,787.547729 581.343628,787.399902
z" />
	<path fill="#B8969D" opacity="1.000000" stroke="none" d="
M634.004639,898.629395
	C631.835205,905.895386 627.766846,908.876465 621.303528,908.320984
	C615.801270,907.848022 611.590271,903.880005 610.997437,898.609497
	C610.210205,891.611023 614.689575,886.124390 621.570496,885.658752
	C629.151855,885.145752 633.848450,889.876831 634.004639,898.629395
z" />
	<path fill="#B8969D" opacity="1.000000" stroke="none" d="
M592.641846,885.813721
	C597.507385,886.144653 600.376099,888.085510 600.193604,892.929993
	C600.005615,897.920898 596.546814,899.365601 592.380005,899.309814
	C589.933716,899.277039 585.685791,898.840637 585.396667,897.750671
	C584.501648,894.375916 584.632324,890.483459 585.465332,887.059692
	C585.687927,886.144775 589.847168,886.187622 592.641846,885.813721
z" />
	<path fill="#B8969D" opacity="1.000000" stroke="none" d="
M1010.123169,891.273621
	C1009.682495,897.986633 1001.578674,902.372742 996.293518,898.883911
	C995.119507,898.108826 994.669556,895.376404 994.834167,893.634888
	C995.083313,890.998352 992.899414,887.276367 997.032959,885.938782
	C1002.450317,884.185791 1007.852478,886.387390 1010.123169,891.273621
z" />
	<path fill="#B8969D" opacity="1.000000" stroke="none" d="
M1051.966553,906.186768
	C1044.429565,909.997192 1037.456299,908.382935 1034.372070,902.427917
	C1031.804565,897.470642 1033.047852,891.444702 1037.342407,888.031006
	C1041.371582,884.828247 1048.177124,884.817322 1052.189453,888.007202
	C1056.305298,891.279358 1057.616455,897.650330 1055.024536,902.457764
	C1054.333130,903.740295 1053.209229,904.789673 1051.966553,906.186768
z" />
	<path fill="#B8969D" opacity="1.000000" stroke="none" d="
M795.593506,886.524658
	C798.853821,886.082703 801.831909,885.743469 804.766663,885.969116
	C808.582092,886.262512 810.835022,888.551819 810.914978,892.463501
	C810.989380,896.105713 809.064941,898.523010 805.477600,899.076477
	C802.279053,899.570068 799.002991,899.560486 795.291992,899.803711
	C795.291992,895.016785 795.291992,890.947632 795.593506,886.524658
z" />
	<path fill="#B8969D" opacity="1.000000" stroke="none" d="
M1071.229248,885.805664
	C1074.333496,885.844543 1077.019775,885.681519 1079.611206,886.101990
	C1082.953003,886.644165 1085.399170,889.052917 1084.723633,892.284363
	C1084.210815,894.737183 1082.161011,897.812256 1079.992310,898.745850
	C1077.016479,900.027100 1073.281372,899.544983 1068.203613,899.952332
	C1069.178223,894.599854 1069.973633,890.231384 1071.229248,885.805664
z" />
	<path fill="#B8969D" opacity="1.000000" stroke="none" d="
M826.766479,894.757812
	C827.942505,892.165588 828.964783,889.911499 830.577393,886.355530
	C832.947449,891.646301 834.833801,895.857300 836.981873,900.652466
	C832.531616,900.652466 828.818909,900.652466 824.392334,900.652466
	C825.200989,898.628845 825.906860,896.862427 826.766479,894.757812
z" />
	<path fill="#B8969D" opacity="1.000000" stroke="none" d="
M565.420898,901.005249
	C562.370605,901.008850 559.731628,901.008850 556.040710,901.008850
	C558.241821,896.032532 560.133850,891.754761 562.557678,886.274780
	C564.707092,891.111694 566.459351,894.799622 567.893616,898.607422
	C568.071533,899.079651 566.560547,900.188049 565.420898,901.005249
z" />
	<path fill="#FEFEFE" opacity="1.000000" stroke="none" d="
M362.457336,822.774902
	C358.175720,821.668823 354.246246,820.872253 350.544708,819.472839
	C347.531372,818.333557 346.791687,816.341309 349.067322,813.283630
	C366.796692,789.461365 390.298187,774.608765 419.392487,769.506592
	C426.160645,768.319702 433.720764,771.079285 440.810242,772.538940
	C444.250641,773.247253 445.304657,776.582092 443.438995,779.264282
	C436.517578,789.214966 430.869385,800.549927 416.573669,802.330872
	C405.250854,803.741516 394.892853,808.450928 386.789612,816.454285
	C381.207336,821.967590 375.232574,823.775146 367.900116,823.018005
	C366.247040,822.847229 364.572632,822.883118 362.457336,822.774902
z" />
</svg>